# xmcd
#
# Track frame offsets: 
#        150
#        22025
#        44490
#        61287
#        79967
#        96472
#        116367
#        132377
#        153587
#        171457
#
# Disc length: 2626 seconds
#
# Revision: 1
# Processed by: cddbd v1.5.2PL0 Copyright (c) Steve Scherf et al.
# Submitted via: ExactAudioCopyFreeDBPlugin 1.0
#
DISCID=8d0a400a
DTITLE=Beth Nielsen Chapman - Sand And Water
DYEAR=1997
DGENRE=Pop
TTITLE0=The Color Of Roses
TTITLE1=Beyond The Blue
TTITLE2=All The Time In The World
TTITLE3=Sand And Water
TTITLE4=Fair Enough
TTITLE5=Seven Shades Of Blue
TTITLE6=Happy Girl
TTITLE7=No One Knows But You
TTITLE8=Heads Up For The Wrecking Ball
TTITLE9=Say Goodnight
EXTD=
EXTT0=
EXTT1=
EXTT2=
EXTT3=
EXTT4=
EXTT5=
EXTT6=
EXTT7=
EXTT8=
EXTT9=
PLAYORDER=
